<svg xmlns="http://www.w3.org/2000/svg" xmlns:xlink="http://www.w3.org/1999/xlink" width="500" zoomAndPan="magnify" viewBox="0 0 375 374.999991" height="500" preserveAspectRatio="xMidYMid meet" version="1.0"><defs><g/><clipPath id="a670311b70"><path d="M 37.5 150.476562 L 125 150.476562 L 125 220.226562 L 37.5 220.226562 Z M 37.5 150.476562 " clip-rule="nonzero"/></clipPath></defs><g clip-path="url(#a670311b70)"><path fill="#00bf63" d="M 77.351562 171.738281 C 77.210938 171.457031 77.105469 171.210938 77.039062 170.933594 C 76.898438 170.511719 76.828125 170.058594 76.828125 169.65625 C 76.828125 169.023438 76.933594 168.484375 77.175781 167.957031 C 77.386719 167.398438 77.738281 166.925781 78.105469 166.503906 L 78.140625 166.503906 C 78.453125 166.191406 78.804688 165.945312 79.171875 165.734375 C 79.417969 165.59375 79.695312 165.488281 79.976562 165.386719 L 79.976562 159.15625 L 61.847656 187.15625 Z M 79.996094 173.890625 C 79.855469 173.820312 79.714844 173.785156 79.574219 173.714844 C 79.433594 173.679688 79.292969 173.609375 79.15625 173.539062 L 59.816406 192.773438 C 59.921875 192.914062 60.027344 193.085938 60.132812 193.261719 C 60.203125 193.402344 60.308594 193.578125 60.378906 193.753906 L 74.65625 190.460938 L 74.65625 190.253906 C 74.65625 189.359375 74.832031 188.519531 75.148438 187.714844 C 75.496094 186.910156 75.988281 186.191406 76.601562 185.5625 C 77.125 185.074219 77.703125 184.636719 78.367188 184.320312 L 78.402344 184.285156 C 78.890625 184.039062 79.433594 183.863281 79.996094 183.761719 Z M 83.355469 173.539062 C 83.214844 173.609375 83.074219 173.679688 82.933594 173.714844 C 82.792969 173.785156 82.65625 173.820312 82.515625 173.890625 L 82.515625 183.761719 C 83.109375 183.863281 83.617188 184.074219 84.140625 184.320312 C 84.808594 184.636719 85.386719 185.089844 85.910156 185.5625 C 87.117188 186.769531 87.851562 188.433594 87.851562 190.234375 L 87.851562 190.480469 L 102.0625 193.734375 C 102.132812 193.558594 102.238281 193.386719 102.308594 193.246094 C 102.414062 193.070312 102.515625 192.894531 102.621094 192.753906 Z M 82.515625 165.386719 C 82.792969 165.488281 83.074219 165.59375 83.320312 165.734375 C 83.738281 165.945312 84.089844 166.226562 84.386719 166.503906 C 84.773438 166.925781 85.121094 167.398438 85.316406 167.957031 C 85.558594 168.484375 85.664062 169.023438 85.664062 169.65625 C 85.664062 170.074219 85.59375 170.53125 85.453125 170.933594 C 85.386719 171.210938 85.28125 171.492188 85.140625 171.738281 L 100.730469 187.296875 L 82.515625 159.15625 Z M 70.140625 200.804688 C 70.457031 200.804688 70.808594 200.839844 71.105469 200.910156 C 71.28125 200.945312 71.453125 201.015625 71.628906 201.085938 L 76.371094 194.714844 C 76.09375 194.433594 75.882812 194.121094 75.671875 193.824219 C 75.496094 193.542969 75.320312 193.226562 75.183594 192.949219 L 60.9375 196.238281 L 60.9375 196.449219 C 60.9375 197.339844 60.761719 198.179688 60.414062 198.984375 C 60.0625 199.789062 59.570312 200.507812 58.996094 201.136719 L 58.960938 201.136719 C 58.363281 201.765625 57.648438 202.238281 56.84375 202.554688 C 56.039062 202.871094 55.214844 203.078125 54.304688 203.078125 C 53.78125 203.078125 53.308594 203.011719 52.816406 202.90625 C 52.503906 202.800781 52.152344 202.695312 51.855469 202.589844 L 45.308594 212.757812 C 45.34375 212.828125 45.414062 212.898438 45.449219 212.96875 L 65.714844 205.476562 C 65.714844 205.40625 65.714844 205.300781 65.714844 205.234375 C 65.714844 204.601562 65.820312 204.058594 66.066406 203.535156 C 66.273438 202.976562 66.625 202.503906 66.992188 202.082031 L 67.027344 202.082031 C 67.445312 201.664062 67.917969 201.347656 68.445312 201.15625 L 68.480469 201.121094 C 68.96875 200.910156 69.566406 200.804688 70.140625 200.804688 Z M 88.132812 203.953125 C 88.203125 203.710938 88.308594 203.464844 88.449219 203.21875 C 88.550781 203.011719 88.691406 202.765625 88.832031 202.554688 L 84.125 196.183594 C 83.738281 196.359375 83.355469 196.5 82.953125 196.640625 C 82.425781 196.78125 81.851562 196.851562 81.253906 196.851562 C 80.695312 196.851562 80.117188 196.78125 79.59375 196.640625 C 79.171875 196.5 78.789062 196.359375 78.417969 196.183594 L 73.710938 202.554688 C 73.851562 202.765625 73.992188 203.011719 74.097656 203.21875 C 74.238281 203.464844 74.34375 203.710938 74.414062 203.953125 Z M 117.078125 212.96875 C 117.113281 212.898438 117.183594 212.828125 117.21875 212.757812 L 110.601562 202.539062 C 110.289062 202.675781 109.9375 202.78125 109.640625 202.851562 C 109.113281 202.992188 108.640625 203.0625 108.117188 203.0625 C 107.226562 203.0625 106.386719 202.851562 105.578125 202.539062 C 104.773438 202.1875 104.058594 201.699219 103.425781 201.121094 C 102.832031 200.488281 102.324219 199.773438 102.011719 198.96875 C 101.660156 198.164062 101.484375 197.339844 101.484375 196.429688 L 101.484375 196.21875 L 87.308594 192.929688 C 87.167969 193.246094 86.996094 193.523438 86.820312 193.804688 C 86.609375 194.121094 86.398438 194.433594 86.121094 194.699219 L 90.863281 201.066406 C 91.039062 200.996094 91.210938 200.925781 91.386719 200.890625 C 91.703125 200.824219 92.050781 200.789062 92.351562 200.789062 C 92.980469 200.789062 93.523438 200.890625 94.046875 201.136719 C 94.605469 201.347656 95.078125 201.699219 95.5 202.066406 C 95.886719 202.484375 96.234375 202.957031 96.425781 203.515625 C 96.671875 204.042969 96.777344 204.585938 96.777344 205.214844 C 96.777344 205.285156 96.777344 205.390625 96.777344 205.460938 Z M 43.15625 211.410156 L 49.773438 201.191406 L 49.667969 201.121094 C 49.070312 200.488281 48.601562 199.773438 48.25 198.96875 C 47.933594 198.164062 47.726562 197.339844 47.726562 196.429688 C 47.726562 195.519531 47.933594 194.699219 48.25 193.890625 C 48.601562 193.085938 49.089844 192.371094 49.667969 191.738281 C 50.296875 191.144531 51.015625 190.636719 51.820312 190.324219 C 52.625 189.972656 53.445312 189.796875 54.355469 189.796875 C 54.882812 189.796875 55.355469 189.867188 55.84375 189.972656 C 56.160156 190.042969 56.507812 190.148438 56.808594 190.289062 L 77.878906 157.738281 C 77.597656 157.386719 77.351562 156.96875 77.175781 156.566406 L 77.140625 156.53125 C 76.933594 156.003906 76.828125 155.460938 76.828125 154.867188 C 76.828125 154.273438 76.933594 153.695312 77.175781 153.171875 C 77.386719 152.644531 77.738281 152.171875 78.105469 151.753906 L 78.140625 151.71875 C 78.558594 151.332031 79.03125 151.015625 79.558594 150.789062 L 79.59375 150.789062 C 80.082031 150.578125 80.660156 150.476562 81.21875 150.476562 C 81.851562 150.476562 82.390625 150.578125 82.917969 150.789062 C 83.476562 151.035156 83.949219 151.351562 84.371094 151.753906 C 84.753906 152.171875 85.105469 152.644531 85.296875 153.171875 C 85.542969 153.695312 85.648438 154.273438 85.648438 154.867188 C 85.648438 155.460938 85.542969 156.039062 85.296875 156.566406 C 85.121094 156.984375 84.878906 157.40625 84.597656 157.738281 L 105.667969 190.269531 C 105.949219 190.164062 106.296875 190.058594 106.59375 189.988281 C 107.085938 189.886719 107.558594 189.816406 108.046875 189.816406 C 108.941406 189.816406 109.78125 189.988281 110.585938 190.339844 C 111.390625 190.65625 112.105469 191.179688 112.738281 191.757812 C 113.910156 192.964844 114.679688 194.59375 114.679688 196.429688 C 114.679688 197.324219 114.46875 198.164062 114.15625 198.96875 C 113.804688 199.773438 113.316406 200.488281 112.738281 201.121094 L 112.703125 201.15625 L 119.316406 211.410156 C 119.703125 211.269531 120.121094 211.199219 120.558594 211.199219 C 121.15625 211.199219 121.699219 211.339844 122.222656 211.550781 C 122.78125 211.796875 123.253906 212.109375 123.675781 212.511719 C 124.058594 212.933594 124.410156 213.40625 124.601562 213.929688 C 124.847656 214.453125 124.953125 215.03125 124.953125 215.628906 C 124.953125 216.222656 124.847656 216.800781 124.601562 217.324219 C 124.390625 217.851562 124.042969 218.324219 123.675781 218.742188 L 123.640625 218.777344 C 123.21875 219.164062 122.765625 219.511719 122.222656 219.707031 C 121.699219 219.914062 121.15625 220.054688 120.558594 220.054688 C 119.929688 220.054688 119.386719 219.914062 118.863281 219.707031 C 118.300781 219.460938 117.828125 219.144531 117.410156 218.742188 C 117.023438 218.324219 116.675781 217.851562 116.480469 217.324219 L 116.449219 217.289062 C 116.238281 216.765625 116.132812 216.222656 116.132812 215.628906 C 116.132812 215.523438 116.132812 215.453125 116.132812 215.347656 L 95.867188 207.859375 L 95.832031 207.925781 C 95.691406 208.066406 95.585938 208.207031 95.480469 208.347656 L 95.449219 208.382812 C 95.027344 208.765625 94.554688 209.082031 94.03125 209.273438 C 93.503906 209.519531 92.960938 209.625 92.332031 209.625 C 91.738281 209.625 91.195312 209.519531 90.667969 209.273438 C 90.109375 209.066406 89.636719 208.714844 89.21875 208.347656 C 88.902344 208.03125 88.65625 207.683594 88.445312 207.28125 C 88.308594 207.035156 88.203125 206.753906 88.097656 206.476562 L 74.34375 206.476562 C 74.238281 206.753906 74.132812 207.035156 73.992188 207.28125 C 73.78125 207.699219 73.539062 208.050781 73.222656 208.347656 L 73.1875 208.382812 C 72.765625 208.765625 72.3125 209.082031 71.769531 209.273438 C 71.246094 209.519531 70.703125 209.625 70.105469 209.625 C 69.476562 209.625 68.933594 209.519531 68.410156 209.273438 C 67.851562 209.066406 67.378906 208.714844 66.957031 208.347656 C 66.816406 208.207031 66.675781 208.03125 66.570312 207.859375 L 46.34375 215.363281 C 46.34375 215.46875 46.34375 215.539062 46.34375 215.644531 C 46.34375 216.238281 46.238281 216.816406 45.992188 217.34375 C 45.78125 217.867188 45.433594 218.339844 45.066406 218.761719 L 45.03125 218.796875 C 44.609375 219.179688 44.136719 219.53125 43.613281 219.722656 C 43.085938 219.933594 42.542969 220.074219 41.914062 220.074219 C 41.320312 220.074219 40.777344 219.933594 40.253906 219.722656 C 39.691406 219.476562 39.21875 219.164062 38.800781 218.761719 C 38.414062 218.339844 38.066406 217.867188 37.871094 217.34375 L 37.820312 217.308594 C 37.609375 216.78125 37.503906 216.238281 37.503906 215.644531 C 37.503906 215.050781 37.609375 214.472656 37.855469 213.949219 C 38.066406 213.421875 38.414062 212.949219 38.78125 212.53125 L 38.816406 212.496094 C 39.238281 212.109375 39.691406 211.761719 40.234375 211.566406 C 40.757812 211.359375 41.335938 211.21875 41.898438 211.21875 C 42.210938 211.21875 42.492188 211.253906 42.773438 211.324219 C 42.878906 211.339844 43.015625 211.339844 43.15625 211.410156 Z M 43.15625 211.410156 " fill-opacity="1" fill-rule="nonzero"/></g><g fill="#f5f5f5" fill-opacity="1"><g transform="translate(140.07943, 175.549705)"><g><path d="M 1.390625 -24 L 20.34375 -24 L 20.34375 -19.359375 L 9.3125 -4.84375 L 20.34375 -4.84375 L 20.34375 0 L 1.3125 0 L 1.3125 -4.640625 L 12.390625 -19.15625 L 1.390625 -19.15625 Z M 1.390625 -24 "/></g></g></g><g fill="#f5f5f5" fill-opacity="1"><g transform="translate(161.732673, 175.549705)"><g><path d="M 13.453125 0.25 C 9.265625 0.25 6.050781 -1.128906 3.8125 -3.890625 C 2.007812 -6.109375 1.109375 -8.734375 1.109375 -11.765625 C 1.109375 -14.992188 2.007812 -17.785156 3.8125 -20.140625 C 6.050781 -23.015625 9.265625 -24.453125 13.453125 -24.453125 C 17.609375 -24.453125 20.835938 -23.015625 23.140625 -20.140625 C 24.910156 -17.835938 25.796875 -15.046875 25.796875 -11.765625 C 25.796875 -8.703125 24.910156 -6.078125 23.140625 -3.890625 C 20.835938 -1.128906 17.609375 0.25 13.453125 0.25 Z M 9.046875 -6.5625 C 10.128906 -5.25 11.597656 -4.59375 13.453125 -4.59375 C 15.316406 -4.59375 16.785156 -5.25 17.859375 -6.5625 C 18.941406 -7.875 19.484375 -9.609375 19.484375 -11.765625 C 19.484375 -14.066406 18.945312 -15.945312 17.875 -17.40625 C 16.8125 -18.875 15.335938 -19.609375 13.453125 -19.609375 C 11.566406 -19.609375 10.085938 -18.875 9.015625 -17.40625 C 7.953125 -15.945312 7.421875 -14.066406 7.421875 -11.765625 C 7.421875 -9.609375 7.960938 -7.875 9.046875 -6.5625 Z M 9.046875 -6.5625 "/></g></g></g><g fill="#f5f5f5" fill-opacity="1"><g transform="translate(188.635187, 175.549705)"><g><path d="M 13.453125 0.25 C 9.265625 0.25 6.050781 -1.128906 3.8125 -3.890625 C 2.007812 -6.109375 1.109375 -8.734375 1.109375 -11.765625 C 1.109375 -14.992188 2.007812 -17.785156 3.8125 -20.140625 C 6.050781 -23.015625 9.265625 -24.453125 13.453125 -24.453125 C 17.609375 -24.453125 20.835938 -23.015625 23.140625 -20.140625 C 24.910156 -17.835938 25.796875 -15.046875 25.796875 -11.765625 C 25.796875 -8.703125 24.910156 -6.078125 23.140625 -3.890625 C 20.835938 -1.128906 17.609375 0.25 13.453125 0.25 Z M 9.046875 -6.5625 C 10.128906 -5.25 11.597656 -4.59375 13.453125 -4.59375 C 15.316406 -4.59375 16.785156 -5.25 17.859375 -6.5625 C 18.941406 -7.875 19.484375 -9.609375 19.484375 -11.765625 C 19.484375 -14.066406 18.945312 -15.945312 17.875 -17.40625 C 16.8125 -18.875 15.335938 -19.609375 13.453125 -19.609375 C 11.566406 -19.609375 10.085938 -18.875 9.015625 -17.40625 C 7.953125 -15.945312 7.421875 -14.066406 7.421875 -11.765625 C 7.421875 -9.609375 7.960938 -7.875 9.046875 -6.5625 Z M 9.046875 -6.5625 "/></g></g></g><g fill="#f5f5f5" fill-opacity="1"><g transform="translate(215.537702, 175.549705)"><g><path d="M 8.25 -14.609375 L 8.25 0 L 1.921875 0 L 1.921875 -24 L 9.03125 -24 L 18.5 -9.765625 L 18.5 -24 L 24.8125 -24 L 24.8125 0 L 17.890625 0 Z M 8.25 -14.609375 "/></g></g></g><g fill="#f5f5f5" fill-opacity="1"><g transform="translate(242.276184, 175.549705)"><g><path d="M 1.921875 -24 L 20.015625 -24 L 20.015625 -19.15625 L 8.25 -19.15625 L 8.25 -14.359375 L 17.1875 -14.359375 L 17.1875 -9.4375 L 8.25 -9.4375 L 8.25 -4.84375 L 20.015625 -4.84375 L 20.015625 0 L 1.921875 0 Z M 1.921875 -24 "/></g></g></g><g fill="#f5f5f5" fill-opacity="1"><g transform="translate(263.601348, 175.549705)"><g><path d="M 22.71875 -15.5 C 22.71875 -14.101562 22.351562 -12.722656 21.625 -11.359375 C 20.90625 -9.992188 19.847656 -8.890625 18.453125 -8.046875 L 22.265625 0 L 15.296875 0 L 12.015625 -6.96875 L 8.25 -6.96875 L 8.25 0 L 1.921875 0 L 1.921875 -24 L 13.078125 -24 C 16.253906 -24 18.65625 -23.179688 20.28125 -21.546875 C 21.90625 -19.921875 22.71875 -17.90625 22.71875 -15.5 Z M 8.25 -11.765625 L 12.796875 -11.765625 C 13.859375 -11.765625 14.734375 -12.097656 15.421875 -12.765625 C 16.109375 -13.441406 16.453125 -14.335938 16.453125 -15.453125 C 16.453125 -16.578125 16.109375 -17.472656 15.421875 -18.140625 C 14.734375 -18.816406 13.859375 -19.15625 12.796875 -19.15625 L 8.25 -19.15625 Z M 8.25 -11.765625 "/></g></g></g><g fill="#f5f5f5" fill-opacity="1"><g transform="translate(287.223068, 175.549705)"><g><path d="M 23.671875 -8.046875 C 23.671875 -5.421875 22.90625 -3.421875 21.375 -2.046875 C 19.625 -0.515625 16.804688 0.25 12.921875 0.25 C 9.859375 0.25 7.257812 -0.335938 5.125 -1.515625 C 2.988281 -2.691406 1.71875 -4.550781 1.3125 -7.09375 L 8.609375 -7.09375 C 8.773438 -5.425781 10.226562 -4.59375 12.96875 -4.59375 C 14.632812 -4.59375 15.78125 -4.769531 16.40625 -5.125 C 17.03125 -5.476562 17.34375 -6.109375 17.34375 -7.015625 C 17.34375 -7.265625 17.253906 -7.5 17.078125 -7.71875 C 16.898438 -7.9375 16.625 -8.125 16.25 -8.28125 C 15.882812 -8.445312 15.519531 -8.597656 15.15625 -8.734375 C 14.789062 -8.867188 14.3125 -9.003906 13.71875 -9.140625 C 13.132812 -9.285156 12.644531 -9.394531 12.25 -9.46875 C 11.851562 -9.550781 11.332031 -9.644531 10.6875 -9.75 C 10.039062 -9.863281 9.597656 -9.953125 9.359375 -10.015625 C 7.929688 -10.253906 6.644531 -10.632812 5.5 -11.15625 C 2.738281 -12.332031 1.359375 -14.148438 1.359375 -16.609375 C 1.359375 -19.097656 2.109375 -20.984375 3.609375 -22.265625 C 5.304688 -23.722656 8.097656 -24.453125 11.984375 -24.453125 C 14.984375 -24.453125 17.582031 -23.796875 19.78125 -22.484375 C 21.988281 -21.171875 23.09375 -19.347656 23.09375 -17.015625 L 15.75 -17.015625 C 15.613281 -18.742188 14.367188 -19.609375 12.015625 -19.609375 C 10.679688 -19.609375 9.625 -19.429688 8.84375 -19.078125 C 8.0625 -18.722656 7.671875 -18.3125 7.671875 -17.84375 C 7.671875 -17.507812 7.785156 -17.191406 8.015625 -16.890625 C 8.253906 -16.597656 8.625 -16.332031 9.125 -16.09375 C 9.632812 -15.863281 10.109375 -15.664062 10.546875 -15.5 C 10.984375 -15.34375 11.582031 -15.171875 12.34375 -14.984375 C 13.113281 -14.804688 13.679688 -14.679688 14.046875 -14.609375 C 14.421875 -14.546875 14.960938 -14.445312 15.671875 -14.3125 C 17.035156 -14.039062 18.320312 -13.671875 19.53125 -13.203125 C 22.289062 -12.085938 23.671875 -10.367188 23.671875 -8.046875 Z M 23.671875 -8.046875 "/></g></g></g><g fill="#f5f5f5" fill-opacity="1"><g transform="translate(140.07943, 217.467586)"><g><path d="M 14.4375 0 L 9.03125 -18.78125 L 7.828125 0 L 1.515625 0 L 2.25 -12.015625 C 2.550781 -16.878906 2.785156 -20.875 2.953125 -24 L 13.65625 -24 L 17.4375 -9.921875 L 21.203125 -24 L 31.90625 -24 C 32.070312 -20.875 32.304688 -16.878906 32.609375 -12.015625 L 33.34375 0 L 27.03125 0 L 25.84375 -18.78125 L 20.421875 0 Z M 14.4375 0 "/></g></g></g><g fill="#f5f5f5" fill-opacity="1"><g transform="translate(174.937867, 217.467586)"><g><path d="M 1.921875 -24 L 20.015625 -24 L 20.015625 -19.15625 L 8.25 -19.15625 L 8.25 -14.359375 L 17.1875 -14.359375 L 17.1875 -9.4375 L 8.25 -9.4375 L 8.25 -4.84375 L 20.015625 -4.84375 L 20.015625 0 L 1.921875 0 Z M 1.921875 -24 "/></g></g></g><g fill="#f5f5f5" fill-opacity="1"><g transform="translate(196.263032, 217.467586)"><g><path d="M 23.671875 -8.046875 C 23.671875 -5.421875 22.90625 -3.421875 21.375 -2.046875 C 19.625 -0.515625 16.804688 0.25 12.921875 0.25 C 9.859375 0.25 7.257812 -0.335938 5.125 -1.515625 C 2.988281 -2.691406 1.71875 -4.550781 1.3125 -7.09375 L 8.609375 -7.09375 C 8.773438 -5.425781 10.226562 -4.59375 12.96875 -4.59375 C 14.632812 -4.59375 15.78125 -4.769531 16.40625 -5.125 C 17.03125 -5.476562 17.34375 -6.109375 17.34375 -7.015625 C 17.34375 -7.265625 17.253906 -7.5 17.078125 -7.71875 C 16.898438 -7.9375 16.625 -8.125 16.25 -8.28125 C 15.882812 -8.445312 15.519531 -8.597656 15.15625 -8.734375 C 14.789062 -8.867188 14.3125 -9.003906 13.71875 -9.140625 C 13.132812 -9.285156 12.644531 -9.394531 12.25 -9.46875 C 11.851562 -9.550781 11.332031 -9.644531 10.6875 -9.75 C 10.039062 -9.863281 9.597656 -9.953125 9.359375 -10.015625 C 7.929688 -10.253906 6.644531 -10.632812 5.5 -11.15625 C 2.738281 -12.332031 1.359375 -14.148438 1.359375 -16.609375 C 1.359375 -19.097656 2.109375 -20.984375 3.609375 -22.265625 C 5.304688 -23.722656 8.097656 -24.453125 11.984375 -24.453125 C 14.984375 -24.453125 17.582031 -23.796875 19.78125 -22.484375 C 21.988281 -21.171875 23.09375 -19.347656 23.09375 -17.015625 L 15.75 -17.015625 C 15.613281 -18.742188 14.367188 -19.609375 12.015625 -19.609375 C 10.679688 -19.609375 9.625 -19.429688 8.84375 -19.078125 C 8.0625 -18.722656 7.671875 -18.3125 7.671875 -17.84375 C 7.671875 -17.507812 7.785156 -17.191406 8.015625 -16.890625 C 8.253906 -16.597656 8.625 -16.332031 9.125 -16.09375 C 9.632812 -15.863281 10.109375 -15.664062 10.546875 -15.5 C 10.984375 -15.34375 11.582031 -15.171875 12.34375 -14.984375 C 13.113281 -14.804688 13.679688 -14.679688 14.046875 -14.609375 C 14.421875 -14.546875 14.960938 -14.445312 15.671875 -14.3125 C 17.035156 -14.039062 18.320312 -13.671875 19.53125 -13.203125 C 22.289062 -12.085938 23.671875 -10.367188 23.671875 -8.046875 Z M 23.671875 -8.046875 "/></g></g></g><g fill="#f5f5f5" fill-opacity="1"><g transform="translate(221.238077, 217.467586)"><g><path d="M 23.671875 -8.046875 C 23.671875 -5.421875 22.90625 -3.421875 21.375 -2.046875 C 19.625 -0.515625 16.804688 0.25 12.921875 0.25 C 9.859375 0.25 7.257812 -0.335938 5.125 -1.515625 C 2.988281 -2.691406 1.71875 -4.550781 1.3125 -7.09375 L 8.609375 -7.09375 C 8.773438 -5.425781 10.226562 -4.59375 12.96875 -4.59375 C 14.632812 -4.59375 15.78125 -4.769531 16.40625 -5.125 C 17.03125 -5.476562 17.34375 -6.109375 17.34375 -7.015625 C 17.34375 -7.265625 17.253906 -7.5 17.078125 -7.71875 C 16.898438 -7.9375 16.625 -8.125 16.25 -8.28125 C 15.882812 -8.445312 15.519531 -8.597656 15.15625 -8.734375 C 14.789062 -8.867188 14.3125 -9.003906 13.71875 -9.140625 C 13.132812 -9.285156 12.644531 -9.394531 12.25 -9.46875 C 11.851562 -9.550781 11.332031 -9.644531 10.6875 -9.75 C 10.039062 -9.863281 9.597656 -9.953125 9.359375 -10.015625 C 7.929688 -10.253906 6.644531 -10.632812 5.5 -11.15625 C 2.738281 -12.332031 1.359375 -14.148438 1.359375 -16.609375 C 1.359375 -19.097656 2.109375 -20.984375 3.609375 -22.265625 C 5.304688 -23.722656 8.097656 -24.453125 11.984375 -24.453125 C 14.984375 -24.453125 17.582031 -23.796875 19.78125 -22.484375 C 21.988281 -21.171875 23.09375 -19.347656 23.09375 -17.015625 L 15.75 -17.015625 C 15.613281 -18.742188 14.367188 -19.609375 12.015625 -19.609375 C 10.679688 -19.609375 9.625 -19.429688 8.84375 -19.078125 C 8.0625 -18.722656 7.671875 -18.3125 7.671875 -17.84375 C 7.671875 -17.507812 7.785156 -17.191406 8.015625 -16.890625 C 8.253906 -16.597656 8.625 -16.332031 9.125 -16.09375 C 9.632812 -15.863281 10.109375 -15.664062 10.546875 -15.5 C 10.984375 -15.34375 11.582031 -15.171875 12.34375 -14.984375 C 13.113281 -14.804688 13.679688 -14.679688 14.046875 -14.609375 C 14.421875 -14.546875 14.960938 -14.445312 15.671875 -14.3125 C 17.035156 -14.039062 18.320312 -13.671875 19.53125 -13.203125 C 22.289062 -12.085938 23.671875 -10.367188 23.671875 -8.046875 Z M 23.671875 -8.046875 "/></g></g></g><g fill="#f5f5f5" fill-opacity="1"><g transform="translate(246.213123, 217.467586)"><g><path d="M 25.546875 0 L 18.875 0 L 17.1875 -4.875 L 8.65625 -4.875 L 6.96875 0 L 0.28125 0 L 8.15625 -24 L 17.671875 -24 Z M 16.125 -9.84375 L 12.921875 -19.6875 L 9.71875 -9.84375 Z M 16.125 -9.84375 "/></g></g></g><g fill="#f5f5f5" fill-opacity="1"><g transform="translate(272.049383, 217.467586)"><g><path d="M 13.625 0.25 C 9.4375 0.25 6.191406 -1.128906 3.890625 -3.890625 C 2.035156 -6.140625 1.109375 -8.765625 1.109375 -11.765625 C 1.109375 -15.023438 2.023438 -17.816406 3.859375 -20.140625 C 6.148438 -23.015625 9.390625 -24.453125 13.578125 -24.453125 C 16.859375 -24.453125 19.535156 -23.675781 21.609375 -22.125 C 23.691406 -20.582031 24.925781 -18.523438 25.3125 -15.953125 L 18.875 -15.953125 C 18.875 -17.128906 18.40625 -18.03125 17.46875 -18.65625 C 16.539062 -19.289062 15.378906 -19.609375 13.984375 -19.609375 C 11.960938 -19.609375 10.363281 -18.882812 9.1875 -17.4375 C 8.007812 -15.988281 7.421875 -14.097656 7.421875 -11.765625 C 7.421875 -9.609375 7.976562 -7.875 9.09375 -6.5625 C 10.21875 -5.25 11.710938 -4.59375 13.578125 -4.59375 C 15.328125 -4.59375 16.671875 -4.875 17.609375 -5.4375 C 18.554688 -6 19.265625 -6.960938 19.734375 -8.328125 L 15.46875 -8.328125 L 15.46875 -12.96875 L 25.140625 -12.96875 L 25.140625 0 L 20.546875 0 L 20.390625 -1.96875 C 18.660156 -0.488281 16.40625 0.25 13.625 0.25 Z M 13.625 0.25 "/></g></g></g><g fill="#f5f5f5" fill-opacity="1"><g transform="translate(299.074921, 217.467586)"><g><path d="M 1.921875 -24 L 20.015625 -24 L 20.015625 -19.15625 L 8.25 -19.15625 L 8.25 -14.359375 L 17.1875 -14.359375 L 17.1875 -9.4375 L 8.25 -9.4375 L 8.25 -4.84375 L 20.015625 -4.84375 L 20.015625 0 L 1.921875 0 Z M 1.921875 -24 "/></g></g></g></svg>