<svg xmlns="http://www.w3.org/2000/svg" xmlns:xlink="http://www.w3.org/1999/xlink" width="200" zoomAndPan="magnify" viewBox="0 0 150 74.999997" height="100" preserveAspectRatio="xMidYMid meet" version="1.0"><defs><g/><clipPath id="5f79bef3f0"><path d="M 0 20.070312 L 42.675781 20.070312 L 42.675781 53.992188 L 0 53.992188 Z M 0 20.070312 " clip-rule="nonzero"/></clipPath></defs><g clip-path="url(#5f79bef3f0)"><path fill="#00bf63" d="M 19.382812 30.410156 C 19.3125 30.273438 19.261719 30.15625 19.226562 30.019531 C 19.160156 29.816406 19.125 29.59375 19.125 29.398438 C 19.125 29.09375 19.175781 28.828125 19.296875 28.574219 C 19.398438 28.300781 19.570312 28.070312 19.746094 27.867188 L 19.765625 27.867188 C 19.917969 27.714844 20.089844 27.59375 20.265625 27.492188 C 20.386719 27.421875 20.523438 27.371094 20.660156 27.320312 L 20.660156 24.292969 L 11.839844 37.910156 Z M 20.667969 31.457031 C 20.597656 31.425781 20.53125 31.40625 20.460938 31.371094 C 20.394531 31.355469 20.328125 31.320312 20.257812 31.289062 L 10.855469 40.640625 C 10.90625 40.710938 10.957031 40.792969 11.007812 40.878906 C 11.039062 40.949219 11.09375 41.03125 11.125 41.117188 L 18.070312 39.519531 L 18.070312 39.414062 C 18.070312 38.980469 18.15625 38.574219 18.308594 38.183594 C 18.480469 37.789062 18.71875 37.441406 19.015625 37.136719 C 19.269531 36.898438 19.550781 36.683594 19.875 36.53125 L 19.890625 36.511719 C 20.128906 36.394531 20.394531 36.308594 20.667969 36.257812 Z M 22.300781 31.289062 C 22.234375 31.320312 22.164062 31.355469 22.097656 31.371094 C 22.027344 31.40625 21.960938 31.425781 21.890625 31.457031 L 21.890625 36.257812 C 22.183594 36.308594 22.429688 36.410156 22.683594 36.53125 C 23.007812 36.683594 23.289062 36.90625 23.542969 37.136719 C 24.128906 37.722656 24.488281 38.53125 24.488281 39.40625 L 24.488281 39.527344 L 31.398438 41.109375 C 31.433594 41.023438 31.484375 40.9375 31.519531 40.871094 C 31.570312 40.785156 31.621094 40.699219 31.671875 40.632812 Z M 21.890625 27.320312 C 22.027344 27.371094 22.164062 27.421875 22.285156 27.492188 C 22.488281 27.59375 22.660156 27.730469 22.804688 27.867188 C 22.992188 28.070312 23.160156 28.300781 23.253906 28.574219 C 23.375 28.828125 23.425781 29.09375 23.425781 29.398438 C 23.425781 29.601562 23.390625 29.824219 23.320312 30.019531 C 23.289062 30.15625 23.238281 30.292969 23.167969 30.410156 L 30.753906 37.976562 L 21.890625 24.292969 Z M 15.875 44.546875 C 16.027344 44.546875 16.199219 44.566406 16.34375 44.597656 C 16.429688 44.617188 16.511719 44.648438 16.597656 44.683594 L 18.90625 41.585938 C 18.769531 41.449219 18.667969 41.296875 18.566406 41.152344 C 18.480469 41.015625 18.394531 40.863281 18.328125 40.726562 L 11.398438 42.328125 L 11.398438 42.429688 C 11.398438 42.863281 11.3125 43.269531 11.144531 43.664062 C 10.972656 44.054688 10.734375 44.402344 10.453125 44.710938 L 10.4375 44.710938 C 10.148438 45.015625 9.796875 45.246094 9.40625 45.398438 C 9.015625 45.550781 8.617188 45.652344 8.171875 45.652344 C 7.917969 45.652344 7.6875 45.621094 7.449219 45.570312 C 7.296875 45.519531 7.125 45.46875 6.980469 45.414062 L 3.796875 50.359375 C 3.816406 50.394531 3.847656 50.429688 3.867188 50.464844 L 13.722656 46.820312 C 13.722656 46.785156 13.722656 46.734375 13.722656 46.699219 C 13.722656 46.394531 13.773438 46.128906 13.890625 45.875 C 13.996094 45.601562 14.164062 45.375 14.34375 45.167969 L 14.359375 45.167969 C 14.566406 44.964844 14.792969 44.8125 15.050781 44.71875 L 15.066406 44.699219 C 15.304688 44.597656 15.59375 44.546875 15.875 44.546875 Z M 24.625 46.078125 C 24.660156 45.960938 24.710938 45.839844 24.777344 45.722656 C 24.828125 45.621094 24.898438 45.5 24.964844 45.398438 L 22.675781 42.300781 C 22.488281 42.386719 22.300781 42.453125 22.105469 42.523438 C 21.851562 42.589844 21.570312 42.625 21.28125 42.625 C 21.007812 42.625 20.726562 42.589844 20.472656 42.523438 C 20.265625 42.453125 20.078125 42.386719 19.902344 42.300781 L 17.613281 45.398438 C 17.679688 45.5 17.746094 45.621094 17.796875 45.722656 C 17.867188 45.839844 17.917969 45.960938 17.953125 46.078125 Z M 38.703125 50.464844 C 38.71875 50.429688 38.753906 50.394531 38.769531 50.359375 L 35.550781 45.390625 C 35.398438 45.457031 35.230469 45.507812 35.085938 45.542969 C 34.828125 45.613281 34.597656 45.644531 34.34375 45.644531 C 33.910156 45.644531 33.5 45.542969 33.109375 45.390625 C 32.71875 45.21875 32.371094 44.980469 32.0625 44.699219 C 31.773438 44.394531 31.527344 44.046875 31.375 43.652344 C 31.203125 43.261719 31.117188 42.863281 31.117188 42.421875 L 31.117188 42.316406 L 24.222656 40.71875 C 24.15625 40.871094 24.070312 41.007812 23.984375 41.144531 C 23.882812 41.296875 23.78125 41.449219 23.644531 41.578125 L 25.953125 44.675781 C 26.039062 44.640625 26.121094 44.605469 26.207031 44.589844 C 26.359375 44.554688 26.53125 44.539062 26.675781 44.539062 C 26.980469 44.539062 27.246094 44.589844 27.5 44.710938 C 27.773438 44.8125 28.003906 44.980469 28.207031 45.160156 C 28.394531 45.363281 28.566406 45.59375 28.660156 45.867188 C 28.777344 46.121094 28.828125 46.386719 28.828125 46.691406 C 28.828125 46.726562 28.828125 46.777344 28.828125 46.8125 Z M 2.75 49.707031 L 5.96875 44.734375 L 5.917969 44.699219 C 5.628906 44.394531 5.398438 44.046875 5.226562 43.652344 C 5.074219 43.261719 4.972656 42.863281 4.972656 42.421875 C 4.972656 41.976562 5.074219 41.578125 5.226562 41.1875 C 5.398438 40.792969 5.636719 40.445312 5.917969 40.140625 C 6.222656 39.851562 6.574219 39.601562 6.964844 39.449219 C 7.355469 39.28125 7.753906 39.195312 8.199219 39.195312 C 8.453125 39.195312 8.683594 39.226562 8.921875 39.28125 C 9.074219 39.3125 9.246094 39.363281 9.390625 39.433594 L 19.636719 23.601562 C 19.5 23.433594 19.382812 23.226562 19.296875 23.03125 L 19.28125 23.015625 C 19.175781 22.761719 19.125 22.496094 19.125 22.207031 C 19.125 21.917969 19.175781 21.636719 19.296875 21.382812 C 19.398438 21.125 19.570312 20.894531 19.746094 20.691406 L 19.765625 20.675781 C 19.96875 20.488281 20.199219 20.335938 20.453125 20.222656 L 20.472656 20.222656 C 20.710938 20.121094 20.992188 20.070312 21.261719 20.070312 C 21.570312 20.070312 21.832031 20.121094 22.089844 20.222656 C 22.359375 20.34375 22.589844 20.496094 22.792969 20.691406 C 22.980469 20.894531 23.152344 21.125 23.246094 21.382812 C 23.363281 21.636719 23.414062 21.917969 23.414062 22.207031 C 23.414062 22.496094 23.363281 22.777344 23.246094 23.03125 C 23.160156 23.238281 23.042969 23.441406 22.90625 23.601562 L 33.152344 39.425781 C 33.289062 39.375 33.457031 39.320312 33.601562 39.289062 C 33.839844 39.238281 34.070312 39.203125 34.308594 39.203125 C 34.742188 39.203125 35.152344 39.289062 35.542969 39.457031 C 35.933594 39.613281 36.285156 39.867188 36.589844 40.148438 C 37.160156 40.734375 37.535156 41.527344 37.535156 42.421875 C 37.535156 42.855469 37.433594 43.261719 37.28125 43.652344 C 37.109375 44.046875 36.871094 44.394531 36.589844 44.699219 L 36.574219 44.71875 L 39.789062 49.707031 C 39.976562 49.636719 40.183594 49.601562 40.394531 49.601562 C 40.683594 49.601562 40.949219 49.671875 41.203125 49.773438 C 41.476562 49.894531 41.707031 50.046875 41.910156 50.242188 C 42.097656 50.445312 42.265625 50.675781 42.359375 50.929688 C 42.480469 51.1875 42.53125 51.46875 42.53125 51.757812 C 42.53125 52.046875 42.480469 52.328125 42.359375 52.582031 C 42.257812 52.835938 42.089844 53.066406 41.910156 53.273438 L 41.894531 53.289062 C 41.6875 53.476562 41.46875 53.644531 41.203125 53.738281 C 40.949219 53.839844 40.683594 53.910156 40.394531 53.910156 C 40.089844 53.910156 39.824219 53.839844 39.570312 53.738281 C 39.296875 53.621094 39.066406 53.46875 38.863281 53.273438 C 38.675781 53.066406 38.503906 52.835938 38.414062 52.582031 L 38.394531 52.566406 C 38.292969 52.308594 38.242188 52.046875 38.242188 51.757812 C 38.242188 51.707031 38.242188 51.671875 38.242188 51.621094 L 28.386719 47.976562 L 28.371094 48.011719 C 28.300781 48.078125 28.25 48.148438 28.199219 48.214844 L 28.183594 48.234375 C 27.976562 48.421875 27.746094 48.574219 27.492188 48.667969 C 27.238281 48.785156 26.972656 48.835938 26.667969 48.835938 C 26.378906 48.835938 26.113281 48.785156 25.859375 48.667969 C 25.585938 48.566406 25.355469 48.394531 25.152344 48.214844 C 25 48.0625 24.878906 47.894531 24.777344 47.695312 C 24.710938 47.578125 24.660156 47.441406 24.605469 47.304688 L 17.917969 47.304688 C 17.867188 47.441406 17.816406 47.578125 17.746094 47.695312 C 17.644531 47.902344 17.527344 48.070312 17.375 48.214844 L 17.355469 48.234375 C 17.152344 48.421875 16.929688 48.574219 16.667969 48.667969 C 16.410156 48.785156 16.148438 48.835938 15.859375 48.835938 C 15.550781 48.835938 15.289062 48.785156 15.03125 48.667969 C 14.761719 48.566406 14.53125 48.394531 14.324219 48.214844 C 14.257812 48.148438 14.191406 48.0625 14.140625 47.976562 L 4.300781 51.628906 C 4.300781 51.679688 4.300781 51.714844 4.300781 51.765625 C 4.300781 52.054688 4.25 52.335938 4.128906 52.589844 C 4.027344 52.847656 3.859375 53.074219 3.679688 53.28125 L 3.660156 53.296875 C 3.457031 53.484375 3.226562 53.65625 2.972656 53.75 C 2.71875 53.851562 2.453125 53.917969 2.148438 53.917969 C 1.859375 53.917969 1.59375 53.851562 1.339844 53.75 C 1.066406 53.628906 0.835938 53.476562 0.632812 53.28125 C 0.445312 53.074219 0.273438 52.847656 0.179688 52.589844 L 0.15625 52.574219 C 0.0546875 52.316406 0.00390625 52.054688 0.00390625 51.765625 C 0.00390625 51.476562 0.0546875 51.195312 0.171875 50.941406 C 0.273438 50.683594 0.445312 50.453125 0.625 50.25 L 0.640625 50.234375 C 0.84375 50.046875 1.066406 49.875 1.328125 49.78125 C 1.585938 49.679688 1.867188 49.613281 2.136719 49.613281 C 2.292969 49.613281 2.429688 49.628906 2.5625 49.664062 C 2.613281 49.671875 2.683594 49.671875 2.75 49.707031 Z M 2.75 49.707031 " fill-opacity="1" fill-rule="nonzero"/></g><g fill="#f5f5f5" fill-opacity="1"><g transform="translate(49.888295, 32.265183)"><g><path d="M 0.671875 -11.671875 L 9.890625 -11.671875 L 9.890625 -9.421875 L 4.53125 -2.359375 L 9.890625 -2.359375 L 9.890625 0 L 0.640625 0 L 0.640625 -2.25 L 6.03125 -9.3125 L 0.671875 -9.3125 Z M 0.671875 -11.671875 "/></g></g></g><g fill="#f5f5f5" fill-opacity="1"><g transform="translate(60.419094, 32.265183)"><g><path d="M 6.546875 0.125 C 4.503906 0.125 2.941406 -0.546875 1.859375 -1.890625 C 0.972656 -2.972656 0.53125 -4.25 0.53125 -5.71875 C 0.53125 -7.289062 0.972656 -8.648438 1.859375 -9.796875 C 2.941406 -11.191406 4.503906 -11.890625 6.546875 -11.890625 C 8.566406 -11.890625 10.132812 -11.191406 11.25 -9.796875 C 12.113281 -8.679688 12.546875 -7.320312 12.546875 -5.71875 C 12.546875 -4.226562 12.113281 -2.953125 11.25 -1.890625 C 10.132812 -0.546875 8.566406 0.125 6.546875 0.125 Z M 4.390625 -3.1875 C 4.921875 -2.550781 5.640625 -2.234375 6.546875 -2.234375 C 7.453125 -2.234375 8.164062 -2.550781 8.6875 -3.1875 C 9.21875 -3.832031 9.484375 -4.675781 9.484375 -5.71875 C 9.484375 -6.84375 9.222656 -7.757812 8.703125 -8.46875 C 8.179688 -9.175781 7.460938 -9.53125 6.546875 -9.53125 C 5.628906 -9.53125 4.910156 -9.175781 4.390625 -8.46875 C 3.867188 -7.757812 3.609375 -6.84375 3.609375 -5.71875 C 3.609375 -4.675781 3.867188 -3.832031 4.390625 -3.1875 Z M 4.390625 -3.1875 "/></g></g></g><g fill="#f5f5f5" fill-opacity="1"><g transform="translate(73.502813, 32.265183)"><g><path d="M 6.546875 0.125 C 4.503906 0.125 2.941406 -0.546875 1.859375 -1.890625 C 0.972656 -2.972656 0.53125 -4.25 0.53125 -5.71875 C 0.53125 -7.289062 0.972656 -8.648438 1.859375 -9.796875 C 2.941406 -11.191406 4.503906 -11.890625 6.546875 -11.890625 C 8.566406 -11.890625 10.132812 -11.191406 11.25 -9.796875 C 12.113281 -8.679688 12.546875 -7.320312 12.546875 -5.71875 C 12.546875 -4.226562 12.113281 -2.953125 11.25 -1.890625 C 10.132812 -0.546875 8.566406 0.125 6.546875 0.125 Z M 4.390625 -3.1875 C 4.921875 -2.550781 5.640625 -2.234375 6.546875 -2.234375 C 7.453125 -2.234375 8.164062 -2.550781 8.6875 -3.1875 C 9.21875 -3.832031 9.484375 -4.675781 9.484375 -5.71875 C 9.484375 -6.84375 9.222656 -7.757812 8.703125 -8.46875 C 8.179688 -9.175781 7.460938 -9.53125 6.546875 -9.53125 C 5.628906 -9.53125 4.910156 -9.175781 4.390625 -8.46875 C 3.867188 -7.757812 3.609375 -6.84375 3.609375 -5.71875 C 3.609375 -4.675781 3.867188 -3.832031 4.390625 -3.1875 Z M 4.390625 -3.1875 "/></g></g></g><g fill="#f5f5f5" fill-opacity="1"><g transform="translate(86.586533, 32.265183)"><g><path d="M 4.015625 -7.109375 L 4.015625 0 L 0.9375 0 L 0.9375 -11.671875 L 4.390625 -11.671875 L 9 -4.75 L 9 -11.671875 L 12.078125 -11.671875 L 12.078125 0 L 8.703125 0 Z M 4.015625 -7.109375 "/></g></g></g><g fill="#f5f5f5" fill-opacity="1"><g transform="translate(99.590478, 32.265183)"><g><path d="M 0.9375 -11.671875 L 9.734375 -11.671875 L 9.734375 -9.3125 L 4.015625 -9.3125 L 4.015625 -6.984375 L 8.359375 -6.984375 L 8.359375 -4.59375 L 4.015625 -4.59375 L 4.015625 -2.359375 L 9.734375 -2.359375 L 9.734375 0 L 0.9375 0 Z M 0.9375 -11.671875 "/></g></g></g><g fill="#f5f5f5" fill-opacity="1"><g transform="translate(109.961719, 32.265183)"><g><path d="M 11.046875 -7.546875 C 11.046875 -6.867188 10.867188 -6.195312 10.515625 -5.53125 C 10.171875 -4.863281 9.660156 -4.320312 8.984375 -3.90625 L 10.828125 0 L 7.4375 0 L 5.84375 -3.390625 L 4.015625 -3.390625 L 4.015625 0 L 0.9375 0 L 0.9375 -11.671875 L 6.359375 -11.671875 C 7.898438 -11.671875 9.066406 -11.273438 9.859375 -10.484375 C 10.648438 -9.691406 11.046875 -8.710938 11.046875 -7.546875 Z M 4.015625 -5.71875 L 6.21875 -5.71875 C 6.738281 -5.71875 7.164062 -5.878906 7.5 -6.203125 C 7.832031 -6.535156 8 -6.972656 8 -7.515625 C 8 -8.066406 7.832031 -8.503906 7.5 -8.828125 C 7.164062 -9.148438 6.738281 -9.3125 6.21875 -9.3125 L 4.015625 -9.3125 Z M 4.015625 -5.71875 "/></g></g></g><g fill="#f5f5f5" fill-opacity="1"><g transform="translate(121.449863, 32.265183)"><g><path d="M 11.515625 -3.90625 C 11.515625 -2.632812 11.140625 -1.664062 10.390625 -1 C 9.546875 -0.25 8.175781 0.125 6.28125 0.125 C 4.789062 0.125 3.523438 -0.160156 2.484375 -0.734375 C 1.453125 -1.304688 0.835938 -2.210938 0.640625 -3.453125 L 4.1875 -3.453125 C 4.269531 -2.640625 4.976562 -2.234375 6.3125 -2.234375 C 7.113281 -2.234375 7.664062 -2.316406 7.96875 -2.484375 C 8.28125 -2.660156 8.4375 -2.96875 8.4375 -3.40625 C 8.4375 -3.53125 8.394531 -3.644531 8.3125 -3.75 C 8.226562 -3.851562 8.09375 -3.945312 7.90625 -4.03125 C 7.726562 -4.113281 7.550781 -4.1875 7.375 -4.25 C 7.195312 -4.3125 6.960938 -4.375 6.671875 -4.4375 C 6.390625 -4.507812 6.148438 -4.566406 5.953125 -4.609375 C 5.765625 -4.648438 5.515625 -4.695312 5.203125 -4.75 C 4.890625 -4.800781 4.671875 -4.84375 4.546875 -4.875 C 3.859375 -4.988281 3.234375 -5.171875 2.671875 -5.421875 C 1.328125 -5.992188 0.65625 -6.878906 0.65625 -8.078125 C 0.65625 -9.285156 1.019531 -10.203125 1.75 -10.828125 C 2.582031 -11.535156 3.941406 -11.890625 5.828125 -11.890625 C 7.285156 -11.890625 8.550781 -11.566406 9.625 -10.921875 C 10.695312 -10.285156 11.234375 -9.40625 11.234375 -8.28125 L 7.65625 -8.28125 C 7.59375 -9.113281 6.988281 -9.53125 5.84375 -9.53125 C 5.195312 -9.53125 4.679688 -9.441406 4.296875 -9.265625 C 3.921875 -9.097656 3.734375 -8.898438 3.734375 -8.671875 C 3.734375 -8.515625 3.789062 -8.363281 3.90625 -8.21875 C 4.019531 -8.070312 4.195312 -7.941406 4.4375 -7.828125 C 4.6875 -7.710938 4.914062 -7.613281 5.125 -7.53125 C 5.34375 -7.457031 5.632812 -7.375 6 -7.28125 C 6.375 -7.195312 6.648438 -7.140625 6.828125 -7.109375 C 7.015625 -7.078125 7.28125 -7.03125 7.625 -6.96875 C 8.289062 -6.832031 8.914062 -6.648438 9.5 -6.421875 C 10.84375 -5.878906 11.515625 -5.039062 11.515625 -3.90625 Z M 11.515625 -3.90625 "/></g></g></g><g fill="#f5f5f5" fill-opacity="1"><g transform="translate(49.888295, 52.651448)"><g><path d="M 7.03125 0 L 4.390625 -9.140625 L 3.8125 0 L 0.734375 0 L 1.09375 -5.84375 C 1.238281 -8.207031 1.351562 -10.148438 1.4375 -11.671875 L 6.640625 -11.671875 L 8.484375 -4.828125 L 10.3125 -11.671875 L 15.53125 -11.671875 C 15.601562 -10.148438 15.710938 -8.207031 15.859375 -5.84375 L 16.21875 0 L 13.15625 0 L 12.578125 -9.140625 L 9.9375 0 Z M 7.03125 0 "/></g></g></g><g fill="#f5f5f5" fill-opacity="1"><g transform="translate(66.841284, 52.651448)"><g><path d="M 0.9375 -11.671875 L 9.734375 -11.671875 L 9.734375 -9.3125 L 4.015625 -9.3125 L 4.015625 -6.984375 L 8.359375 -6.984375 L 8.359375 -4.59375 L 4.015625 -4.59375 L 4.015625 -2.359375 L 9.734375 -2.359375 L 9.734375 0 L 0.9375 0 Z M 0.9375 -11.671875 "/></g></g></g><g fill="#f5f5f5" fill-opacity="1"><g transform="translate(77.212525, 52.651448)"><g><path d="M 11.515625 -3.90625 C 11.515625 -2.632812 11.140625 -1.664062 10.390625 -1 C 9.546875 -0.25 8.175781 0.125 6.28125 0.125 C 4.789062 0.125 3.523438 -0.160156 2.484375 -0.734375 C 1.453125 -1.304688 0.835938 -2.210938 0.640625 -3.453125 L 4.1875 -3.453125 C 4.269531 -2.640625 4.976562 -2.234375 6.3125 -2.234375 C 7.113281 -2.234375 7.664062 -2.316406 7.96875 -2.484375 C 8.28125 -2.660156 8.4375 -2.96875 8.4375 -3.40625 C 8.4375 -3.53125 8.394531 -3.644531 8.3125 -3.75 C 8.226562 -3.851562 8.09375 -3.945312 7.90625 -4.03125 C 7.726562 -4.113281 7.550781 -4.1875 7.375 -4.25 C 7.195312 -4.3125 6.960938 -4.375 6.671875 -4.4375 C 6.390625 -4.507812 6.148438 -4.566406 5.953125 -4.609375 C 5.765625 -4.648438 5.515625 -4.695312 5.203125 -4.75 C 4.890625 -4.800781 4.671875 -4.84375 4.546875 -4.875 C 3.859375 -4.988281 3.234375 -5.171875 2.671875 -5.421875 C 1.328125 -5.992188 0.65625 -6.878906 0.65625 -8.078125 C 0.65625 -9.285156 1.019531 -10.203125 1.75 -10.828125 C 2.582031 -11.535156 3.941406 -11.890625 5.828125 -11.890625 C 7.285156 -11.890625 8.550781 -11.566406 9.625 -10.921875 C 10.695312 -10.285156 11.234375 -9.40625 11.234375 -8.28125 L 7.65625 -8.28125 C 7.59375 -9.113281 6.988281 -9.53125 5.84375 -9.53125 C 5.195312 -9.53125 4.679688 -9.441406 4.296875 -9.265625 C 3.921875 -9.097656 3.734375 -8.898438 3.734375 -8.671875 C 3.734375 -8.515625 3.789062 -8.363281 3.90625 -8.21875 C 4.019531 -8.070312 4.195312 -7.941406 4.4375 -7.828125 C 4.6875 -7.710938 4.914062 -7.613281 5.125 -7.53125 C 5.34375 -7.457031 5.632812 -7.375 6 -7.28125 C 6.375 -7.195312 6.648438 -7.140625 6.828125 -7.109375 C 7.015625 -7.078125 7.28125 -7.03125 7.625 -6.96875 C 8.289062 -6.832031 8.914062 -6.648438 9.5 -6.421875 C 10.84375 -5.878906 11.515625 -5.039062 11.515625 -3.90625 Z M 11.515625 -3.90625 "/></g></g></g><g fill="#f5f5f5" fill-opacity="1"><g transform="translate(89.358843, 52.651448)"><g><path d="M 11.515625 -3.90625 C 11.515625 -2.632812 11.140625 -1.664062 10.390625 -1 C 9.546875 -0.25 8.175781 0.125 6.28125 0.125 C 4.789062 0.125 3.523438 -0.160156 2.484375 -0.734375 C 1.453125 -1.304688 0.835938 -2.210938 0.640625 -3.453125 L 4.1875 -3.453125 C 4.269531 -2.640625 4.976562 -2.234375 6.3125 -2.234375 C 7.113281 -2.234375 7.664062 -2.316406 7.96875 -2.484375 C 8.28125 -2.660156 8.4375 -2.96875 8.4375 -3.40625 C 8.4375 -3.53125 8.394531 -3.644531 8.3125 -3.75 C 8.226562 -3.851562 8.09375 -3.945312 7.90625 -4.03125 C 7.726562 -4.113281 7.550781 -4.1875 7.375 -4.25 C 7.195312 -4.3125 6.960938 -4.375 6.671875 -4.4375 C 6.390625 -4.507812 6.148438 -4.566406 5.953125 -4.609375 C 5.765625 -4.648438 5.515625 -4.695312 5.203125 -4.75 C 4.890625 -4.800781 4.671875 -4.84375 4.546875 -4.875 C 3.859375 -4.988281 3.234375 -5.171875 2.671875 -5.421875 C 1.328125 -5.992188 0.65625 -6.878906 0.65625 -8.078125 C 0.65625 -9.285156 1.019531 -10.203125 1.75 -10.828125 C 2.582031 -11.535156 3.941406 -11.890625 5.828125 -11.890625 C 7.285156 -11.890625 8.550781 -11.566406 9.625 -10.921875 C 10.695312 -10.285156 11.234375 -9.40625 11.234375 -8.28125 L 7.65625 -8.28125 C 7.59375 -9.113281 6.988281 -9.53125 5.84375 -9.53125 C 5.195312 -9.53125 4.679688 -9.441406 4.296875 -9.265625 C 3.921875 -9.097656 3.734375 -8.898438 3.734375 -8.671875 C 3.734375 -8.515625 3.789062 -8.363281 3.90625 -8.21875 C 4.019531 -8.070312 4.195312 -7.941406 4.4375 -7.828125 C 4.6875 -7.710938 4.914062 -7.613281 5.125 -7.53125 C 5.34375 -7.457031 5.632812 -7.375 6 -7.28125 C 6.375 -7.195312 6.648438 -7.140625 6.828125 -7.109375 C 7.015625 -7.078125 7.28125 -7.03125 7.625 -6.96875 C 8.289062 -6.832031 8.914062 -6.648438 9.5 -6.421875 C 10.84375 -5.878906 11.515625 -5.039062 11.515625 -3.90625 Z M 11.515625 -3.90625 "/></g></g></g><g fill="#f5f5f5" fill-opacity="1"><g transform="translate(101.505161, 52.651448)"><g><path d="M 12.4375 0 L 9.171875 0 L 8.359375 -2.375 L 4.203125 -2.375 L 3.390625 0 L 0.140625 0 L 3.96875 -11.671875 L 8.59375 -11.671875 Z M 7.84375 -4.78125 L 6.28125 -9.578125 L 4.734375 -4.78125 Z M 7.84375 -4.78125 "/></g></g></g><g fill="#f5f5f5" fill-opacity="1"><g transform="translate(114.070321, 52.651448)"><g><path d="M 6.625 0.125 C 4.59375 0.125 3.015625 -0.546875 1.890625 -1.890625 C 0.984375 -2.984375 0.53125 -4.257812 0.53125 -5.71875 C 0.53125 -7.300781 0.976562 -8.660156 1.875 -9.796875 C 2.988281 -11.191406 4.566406 -11.890625 6.609375 -11.890625 C 8.203125 -11.890625 9.503906 -11.515625 10.515625 -10.765625 C 11.523438 -10.015625 12.125 -9.015625 12.3125 -7.765625 L 9.171875 -7.765625 C 9.171875 -8.335938 8.945312 -8.773438 8.5 -9.078125 C 8.050781 -9.378906 7.484375 -9.53125 6.796875 -9.53125 C 5.816406 -9.53125 5.039062 -9.175781 4.46875 -8.46875 C 3.894531 -7.769531 3.609375 -6.851562 3.609375 -5.71875 C 3.609375 -4.675781 3.878906 -3.832031 4.421875 -3.1875 C 4.972656 -2.550781 5.703125 -2.234375 6.609375 -2.234375 C 7.453125 -2.234375 8.101562 -2.367188 8.5625 -2.640625 C 9.03125 -2.910156 9.375 -3.378906 9.59375 -4.046875 L 7.515625 -4.046875 L 7.515625 -6.3125 L 12.234375 -6.3125 L 12.234375 0 L 10 0 L 9.921875 -0.953125 C 9.078125 -0.234375 7.976562 0.125 6.625 0.125 Z M 6.625 0.125 "/></g></g></g><g fill="#f5f5f5" fill-opacity="1"><g transform="translate(127.213872, 52.651448)"><g><path d="M 0.9375 -11.671875 L 9.734375 -11.671875 L 9.734375 -9.3125 L 4.015625 -9.3125 L 4.015625 -6.984375 L 8.359375 -6.984375 L 8.359375 -4.59375 L 4.015625 -4.59375 L 4.015625 -2.359375 L 9.734375 -2.359375 L 9.734375 0 L 0.9375 0 Z M 0.9375 -11.671875 "/></g></g></g></svg>